Coordinates
version=1
nRows=17
nColumns=17
inDegrees=yes

Units are S.I. units (second, meters, Newtons, ...)
If the header above contains a line with 'inDegrees', this indicates whether rotational values are in degrees (yes) or radians (no).

endheader
time	bJoint_3	seatpos	hipangle	kneeangle	footangle	lbackangle	uarmleft_up	uarmleft_out	uarmleft_trn	se_inout	se_updown	uarmright_up	uarmright_out	uarmright_trn	pe_inout	pe_updown
      3.49500000	      0.00004078	     -0.01205905	     87.34087495	     16.46567791	     13.80655285	    -28.20463645	     40.85047039	     16.36944356	     -8.11441905	    -29.09926772	    -11.69458000	     41.25966354	     15.71805938	     -9.19715076	    -30.67534011	    -11.56731174
      3.50000000	      0.00004615	     -0.01303185	     86.90535319	     17.28307106	     14.18842425	    -27.78811742	     40.42464564	     16.91361349	     -8.19806161	    -28.17432338	    -11.50324348	     40.83362768	     16.27251470	     -9.28251931	    -29.73679619	    -11.39620994
      3.50500000	      0.00006675	     -0.01362269	     86.65057167	     17.76147223	     14.41204391	    -27.38820357	     39.91285447	     17.24420298	     -8.20948382	    -27.38283731	    -11.20917697	     40.32864416	     16.61007149	     -9.28956976	    -28.92833211	    -11.11332366
      3.51000000	      0.00004434	     -0.01450515	     86.28261808	     18.45267461	     14.73529269	    -27.01643384	     39.40386101	     17.63241707	     -8.19312993	    -26.64028630	    -10.87516031	     39.80177489	     17.00816722	     -9.27271510	    -28.16451339	    -10.79525854
      3.51500000	      0.00003478	     -0.01548871	     85.88809234	     19.19417385	     15.08226619	    -26.63444648	     38.87573089	     18.06840618	     -8.23234909	    -25.71659713	    -10.58401586	     39.26804042	     17.45798679	     -9.31116398	    -27.21116049	    -10.51810745
      3.52000000	      0.00003806	     -0.01641333	     85.53069020	     19.86624149	     15.39693169	    -26.21073431	     38.59400644	     18.40083432	     -8.34780116	    -25.11183726	    -10.61170309	     38.98703319	     17.79955235	     -9.43518011	    -26.59974490	    -10.56457744
      3.52500000	      0.00002678	     -0.01742944	     85.15143382	     20.57975745	     15.73119128	    -25.82385965	     37.98459409	     18.73992373	     -8.26152857	    -24.45647116	    -10.12801860	     38.36855883	     18.14600336	     -9.33931260	    -25.91667563	    -10.08306406
      3.53000000	      0.00002863	     -0.01839736	     84.80205893	     21.23737620	     16.03943513	    -25.45761959	     37.45538567	     19.13841132	     -8.24719404	    -23.69169966	     -9.77043209	     37.83106287	     18.55470610	     -9.32103529	    -25.12471018	     -9.73468799
      3.53500000	      0.00003584	     -0.01934175	     84.47134083	     21.86015986	     16.33150069	    -25.03716625	     36.95792016	     19.54069717	     -8.32740884	    -22.76449479	     -9.59442958	     37.33253166	     18.96870490	     -9.40698782	    -24.17312431	     -9.57846773
      3.54000000	      0.00003614	     -0.02020911	     84.17572042	     22.41708160	     16.59280203	    -24.61780932	     36.43886167	     19.94469636	     -8.31557258	    -22.05273686	     -9.27089184	     36.80762478	     19.38613034	     -9.39391861	    -23.43822625	     -9.26394480
      3.54500000	     -0.00001522	     -0.02169227	     83.68659937	     23.33901882	     17.02561819	    -24.27787111	     35.82900592	     20.29179230	     -8.21936835	    -21.38573163	     -8.74032367	     36.18345187	     19.74233224	     -9.29047070	    -22.73871117	     -8.73440873
      3.55000000	      0.00001500	     -0.02280292	     83.33266128	     24.00652196	     17.33918325	    -23.87218448	     35.32343062	     20.70927582	     -8.29480834	    -20.41397607	     -8.55446753	     35.67251926	     20.17644492	     -9.37042192	    -21.73655770	     -8.56377978
      3.55500000	      0.00002182	     -0.02380233	     83.02239899	     24.59191032	     17.61430931	    -23.43613052	     34.71006807	     21.06742202	     -8.22011065	    -19.81548458	     -8.08698310	     35.04735006	     20.54213364	     -9.28745776	    -21.10725003	     -8.09686643
      3.56000000	     -0.00001880	     -0.02538167	     82.54664591	     25.48999982	     18.03664573	    -23.10541800	     34.37297014	     21.46878333	     -8.34941764	    -18.89822924	     -8.09285507	     34.70984252	     20.96379677	     -9.42669222	    -20.15667041	     -8.12126422
      3.56500000	     -0.00000263	     -0.02679293	     82.13530449	     26.26694623	     18.40225072	    -22.71532017	     33.75554352	     21.82627130	     -8.27432072	    -18.28531666	     -7.58165843	     34.07853883	     21.33075393	     -9.34062630	    -19.50924800	     -7.60938316
      3.57000000	     -0.00002289	     -0.02843648	     81.67110325	     27.14423245	     18.81533570	    -22.36336605	     33.24634820	     22.26180678	     -8.33298050	    -17.26921318	     -7.34314177	     33.56360242	     21.78554922	     -9.40353497	    -18.45494205	     -7.38729341
      3.57500000	      0.00000993	     -0.02952971	     81.37047237	     27.71267037	     19.08314274	    -21.95049088	     32.61823181	     22.58816920	     -8.28872893	    -16.55049779	     -6.87500035	     32.92154511	     22.12486772	     -9.35218123	    -17.69662510	     -6.92021609
